<?xml version="1.0" encoding="UTF-8" standalone="no" ?>
<!DOCTYPE svg PUBLIC "-//W3C//DTD SVG 1.1//EN" "http://www.w3.org/Graphics/SVG/1.1/DTD/svg11.dtd">
<svg xmlns="http://www.w3.org/2000/svg" xmlns:xlink="http://www.w3.org/1999/xlink" version="1.1" width="1080" height="1080" viewBox="0 0 1080 1080" xml:space="preserve">
<desc>Created with Fabric.js 5.2.4</desc>
<defs>
</defs>
<g transform="matrix(1 0 0 1 540 540)" id="f2b18a82-c100-4b3f-8ec6-f5c27bb8162d"  >
</g>
<g transform="matrix(1 0 0 1 540 540)" id="b5946842-c932-4cc6-b08d-fb4fc60aebc0"  >
<rect style="stroke: none; stroke-width: 1; stroke-dasharray: none; stroke-linecap: butt; stroke-dashoffset: 0; stroke-linejoin: miter; stroke-miterlimit: 4; fill: rgb(255,255,255); fill-rule: nonzero; opacity: 1; visibility: hidden;" vector-effect="non-scaling-stroke"  x="-540" y="-540" rx="0" ry="0" width="1080" height="1080" />
</g>
<g transform="matrix(1 0 0 1 540 540)"  >
<path style="stroke: rgb(0,0,0); stroke-width: 0; stroke-dasharray: none; stroke-linecap: butt; stroke-dashoffset: 0; stroke-linejoin: miter; stroke-miterlimit: 4; fill: rgb(224,23,5); fill-rule: nonzero; opacity: 1;" vector-effect="non-scaling-stroke"  transform=" translate(-49.2, -44.15)" d="M 1.2 49.3 C -0.40000000000000013 46 -0.40000000000000013 42.199999999999996 1.2 38.9 L 20.7 5.2 C 22.7 2.1 26 0.20000000000000018 29.7 0 L 68.7 0 C 72.4 0.2 75.7 2.1 77.7 5.2 L 97.2 39 C 98.8 42.3 98.8 46.1 97.2 49.4 L 77.7 83.1 C 75.7 86.19999999999999 72.4 88.1 68.7 88.3 L 29.700000000000003 88.3 C 26.000000000000004 88.1 22.700000000000003 86.2 20.700000000000003 83.1 L 1.2 49.3 z" stroke-linecap="round" />
</g>
<g transform="matrix(NaN NaN NaN NaN 0 0)"  >
<g style=""   >
</g>
</g>
</svg>